<?xml version="1.0" encoding="UTF-8"?>
<svg xmlns="http://www.w3.org/2000/svg" viewBox="0 0 32 32">
  <path fill="#FF6B6B" d="M16 2a2 2 0 1 1 0 4 2 2 0 0 1 0-4zm8 6a2 2 0 1 1 0 4 2 2 0 0 1 0-4zM8 8a2 2 0 1 1 0 4 2 2 0 0 1 0-4zm0 12a2 2 0 1 1 0 4 2 2 0 0 1 0-4zm8 6a2 2 0 1 1 0 4 2 2 0 0 1 0-4zm8-6a2 2 0 1 1 0 4 2 2 0 0 1 0-4z"/>
  <path fill="#FF6B6B" stroke="#FF6B6B" strokeWidth="1.5" fill="none" d="M16 6v20M10 10l12 12M10 22l12-12"/>
  <circle cx="16" cy="16" r="6" fill="none" stroke="#FF6B6B" strokeWidth="1.5"/>
</svg> 