<?xml version="1.0" encoding="UTF-8"?>
<svg xmlns="http://www.w3.org/2000/svg" viewBox="0 0 32 32">
  <path fill="#00758F" d="M8.785 6.865c-.197 0-.354.016-.5.036v.024h.024c.098.192.27.32.394.485.098.192.197.384.295.576l.024-.024c.18-.128.27-.333.27-.64-.075-.085-.087-.17-.148-.255-.074-.107-.222-.16-.359-.202zM27.953 24.4c-1.89.047-3.35-.142-4.576-.66-.353-.144-.914-.144-1.958-.048l-.098-.197c.098-.012.22-.102.318-.144.491-.208 1.465-.333 2.053-.54.98-.34 1.834-.82 2.815-1.33.49-.263.98-.6 1.47-.893l-.098-.17c-.883-.43-1.567-1.007-2.45-1.485-1.371-.748-2.62-1.52-3.99-2.172-1.273-.602-2.84-.996-4.186-1.634-.295-.17-.663-.25-.98-.418-.222-.12-.42-.293-.63-.44-.957-.69-1.738-1.562-2.498-2.397-.787-.87-1.469-1.836-2.134-2.803-.222-.326-.4-.69-.63-1.016-.957-1.353-1.445-2.84-2.085-4.35-.418-.982-.63-1.94-1.12-2.85-.63-1.124-2.62-1.746-3.575-2.148-.688-.25-1.445-.096-2.157-.25-.418-.17-.81-.66-1.18-.893C.245.82.05.724.05.724c1.25 3.35 2.303 6.088 4.088 8.34.467.602 1.048 1.293 1.687 1.746.467.34 1.084.485 1.25.992-.713.772-1.25 1.77-1.738 2.666-.957 1.81-1.445 3.8-1.834 5.847-.25 1.245-.418 2.49-.664 3.722-.098.418-.295.87-.467 1.3-.467 1.124-1.834 2.27-2.45 3.406-.63 1.173-1.048 2.48-1.615 3.69-.222.46-.565.94-.884 1.364-.43.557-.81 1.28-.98 2.015-.05.197 0 .418.17.557.098.197.32.293.565.293.54-.024 1.12-.17 1.615-.293.883-.25 1.64-.557 2.377-.992.418-.25.835-.772 1.35-.893v.098l-.024.024c-.27.557-.467 1.173-.713 1.77-.27.557-.515 1.137-.712 1.73l.024.024c.442-.102.884-.293 1.273-.485 1.048-.485 1.958-1.173 2.62-2.1.222-.326.27-.69.467-1.052.222-.46.467-.894.664-1.353.418-.772.786-1.634 1.156-2.43.418-.772.712-1.592 1.228-2.293.27-.326.786-.48 1.25-.653.342-.12.908-.17 1.228-.34.63-.326 1.228-.772 1.834-1.173.883-.66 1.86-1.388 2.67-2.148 1.47-1.388 2.547-2.97 3.674-4.59.27-.418.368-.796.63-1.245.515-.94.983-1.964 1.47-2.94.49-.94.908-1.94 1.567-2.73.17-.25.908-.38 1.25-.576.613-.326 1.154-.63 1.69-.992.85-.557 1.665-1.245 2.45-1.89.392-.326.736-.796 1.12-1.173-.134-.134-.222-.326-.392-.422-.392-.293-.883-.418-1.322-.65zM14.87 7.42c-.418 0-.663.05-.934.12v.049h.05c.18.353.515.6.736.894.18.353.344.7.515 1.052l.05-.05c.295-.208.442-.54.442-1.052-.123-.144-.148-.293-.246-.442-.148-.17-.442-.353-.613-.57z"/>
</svg> 