<?xml version="1.0" encoding="UTF-8"?>
<svg xmlns="http://www.w3.org/2000/svg" viewBox="0 0 32 32">
  <defs>
    <linearGradient id="a" x1="0%" y1="0%" x2="100%" y2="100%">
      <stop offset="0%" style="stop-color:#387EB8"/>
      <stop offset="100%" style="stop-color:#366994"/>
    </linearGradient>
    <linearGradient id="b" x1="0%" y1="0%" x2="100%" y2="100%">
      <stop offset="0%" style="stop-color:#FFE052"/>
      <stop offset="100%" style="stop-color:#FFC331"/>
    </linearGradient>
  </defs>
  <path fill="url(#a)" d="M15.885 2.1c-7.1 0-6.651 3.07-6.651 3.07v3.19h6.752v1H6.545S2 8.8 2 16.005s4.013 6.912 4.013 6.912h2.396v-3.326s-.13-4.013 3.9-4.013h6.704s3.772.06 3.772-3.652V5.8s.572-3.7-6.9-3.7zm-3.732 2.137a1.214 1.214 0 1 1-1.183 1.244v-.02a1.214 1.214 0 0 1 1.214-1.214z"/>
  <path fill="url(#b)" d="M16.085 29.91c7.1 0 6.651-3.08 6.651-3.08v-3.19h-6.751v-1h9.47S30 23.2 30 16.005s-4.013-6.912-4.013-6.912h-2.396v3.326s.13 4.013-3.9 4.013h-6.704s-3.772-.06-3.772 3.652v6.126s-.572 3.7 6.9 3.7zm3.732-2.147a1.214 1.214 0 1 1 1.183-1.244v.02a1.214 1.214 0 0 1-1.214 1.214z"/>
</svg> 