<?xml version="1.0" encoding="UTF-8"?>
<svg xmlns="http://www.w3.org/2000/svg" viewBox="0 0 32 32">
  <rect x="2" y="2" width="28" height="28" rx="1.312" fill="#3178c6"/>
  <path d="M18.245 23.759v3.068a6.492 6.492 0 0 0 1.764.575 11.56 11.56 0 0 0 2.146.192 9.968 9.968 0 0 0 2.088-.211 5.11 5.11 0 0 0 1.735-.7 3.542 3.542 0 0 0 1.181-1.266 3.63 3.63 0 0 0 .431-1.812 3.205 3.205 0 0 0-.269-1.368 3.008 3.008 0 0 0-.848-1.039 6.531 6.531 0 0 0-1.488-.833q-.911-.391-2.146-.837a20.566 20.566 0 0 1-1.489-.579 4.46 4.46 0 0 1-.975-.544 1.789 1.789 0 0 1-.539-.585 1.517 1.517 0 0 1-.16-.706 1.408 1.408 0 0 1 .178-.726 1.593 1.593 0 0 1 .5-.534 2.505 2.505 0 0 1 .788-.337 4.125 4.125 0 0 1 1.028-.115 5.931 5.931 0 0 1 .8.058 6.292 6.292 0 0 1 .868.177 6.886 6.886 0 0 1 .868.3 4.786 4.786 0 0 1 .8.435v-2.852a7.069 7.069 0 0 0-1.471-.443 9.543 9.543 0 0 0-1.854-.173 8.69 8.69 0 0 0-2.088.244 5.386 5.386 0 0 0-1.716.733 3.573 3.573 0 0 0-1.161 1.241 3.382 3.382 0 0 0-.431 1.724 3.225 3.225 0 0 0 .9 2.407 6.932 6.932 0 0 0 2.844 1.473q1.265.391 2.088.837a3.994 3.994 0 0 1 1.334.786 1.847 1.847 0 0 1 .5.647 1.785 1.785 0 0 1 .16.744 1.594 1.594 0 0 1-.187.784 1.688 1.688 0 0 1-.539.6 2.666 2.666 0 0 1-.868.382 4.332 4.332 0 0 1-1.161.134 6.562 6.562 0 0 1-2.013-.313 4.716 4.716 0 0 1-1.716-.9zM15 11.688h-4v11.5h-3v-11.5h-4v-2.5h11z" fill="#fff" fill-rule="evenodd"/>
</svg> 