<svg width="400" height="250" xmlns="http://www.w3.org/2000/svg">
  <defs>
    <linearGradient id="grad3" x1="0%" y1="0%" x2="100%" y2="100%">
      <stop offset="0%" style="stop-color:#DC2626;stop-opacity:1" />
      <stop offset="100%" style="stop-color:#F59E0B;stop-opacity:1" />
    </linearGradient>
  </defs>
  <rect width="400" height="250" fill="#0F172A"/>
  <rect x="20" y="20" width="360" height="210" rx="10" fill="url(#grad3)" opacity="0.1"/>
  
  <!-- Title -->
  <text x="200" y="50" font-family="Arial, sans-serif" font-size="20" fill="#DC2626" text-anchor="middle" font-weight="bold">Library Management System</text>
  
  <!-- Bookshelf Representation -->
  <rect x="50" y="70" width="300" height="120" rx="5" fill="#DC2626" opacity="0.1"/>
  
  <!-- Shelves -->
  <rect x="60" y="80" width="280" height="35" rx="3" fill="#F59E0B" opacity="0.2"/>
  <rect x="60" y="125" width="280" height="35" rx="3" fill="#DC2626" opacity="0.2"/>
  <rect x="60" y="170" width="280" height="35" rx="3" fill="#F59E0B" opacity="0.2"/>
  
  <!-- Books -->
  <rect x="70" y="85" width="15" height="25" rx="2" fill="#DC2626"/>
  <rect x="90" y="85" width="15" height="25" rx="2" fill="#F59E0B"/>
  <rect x="110" y="85" width="15" height="25" rx="2" fill="#DC2626"/>
  <rect x="130" y="85" width="15" height="25" rx="2" fill="#F59E0B"/>
  <rect x="150" y="85" width="15" height="25" rx="2" fill="#DC2626"/>
  
  <rect x="70" y="130" width="15" height="25" rx="2" fill="#F59E0B"/>
  <rect x="90" y="130" width="15" height="25" rx="2" fill="#DC2626"/>
  <rect x="110" y="130" width="15" height="25" rx="2" fill="#F59E0B"/>
  <rect x="130" y="130" width="15" height="25" rx="2" fill="#DC2626"/>
  <rect x="150" y="130" width="15" height="25" rx="2" fill="#F59E0B"/>
  
  <rect x="70" y="175" width="15" height="25" rx="2" fill="#DC2626"/>
  <rect x="90" y="175" width="15" height="25" rx="2" fill="#F59E0B"/>
  <rect x="110" y="175" width="15" height="25" rx="2" fill="#DC2626"/>
  <rect x="130" y="175" width="15" height="25" rx="2" fill="#F59E0B"/>
  <rect x="150" y="175" width="15" height="25" rx="2" fill="#DC2626"/>
  
  <!-- Database Icon -->
  <ellipse cx="320" cy="95" rx="25" ry="8" fill="#DC2626" opacity="0.6"/>
  <rect x="295" y="95" width="50" height="40" fill="#DC2626" opacity="0.6"/>
  <ellipse cx="320" cy="135" rx="25" ry="8" fill="#DC2626" opacity="0.6"/>
  
  <!-- Tech Stack -->
  <text x="200" y="210" font-family="Arial, sans-serif" font-size="12" fill="#94A3B8" text-anchor="middle">Flask • MySQL • Railway • Production</text>
</svg>
