<svg width="400" height="250" xmlns="http://www.w3.org/2000/svg">
  <defs>
    <linearGradient id="grad2" x1="0%" y1="0%" x2="100%" y2="100%">
      <stop offset="0%" style="stop-color:#059669;stop-opacity:1" />
      <stop offset="100%" style="stop-color:#10B981;stop-opacity:1" />
    </linearGradient>
  </defs>
  <rect width="400" height="250" fill="#0F172A"/>
  <rect x="20" y="20" width="360" height="210" rx="10" fill="url(#grad2)" opacity="0.1"/>
  
  <!-- Dashboard Layout -->
  <text x="200" y="50" font-family="Arial, sans-serif" font-size="20" fill="#059669" text-anchor="middle" font-weight="bold">Dashboard-NoteVault</text>
  
  <!-- Sidebar -->
  <rect x="30" y="70" width="80" height="150" rx="5" fill="#059669" opacity="0.2"/>
  <rect x="40" y="80" width="60" height="15" rx="3" fill="#059669" opacity="0.5"/>
  <rect x="40" y="100" width="60" height="15" rx="3" fill="#059669" opacity="0.5"/>
  <rect x="40" y="120" width="60" height="15" rx="3" fill="#059669" opacity="0.5"/>
  
  <!-- Main Content Area -->
  <rect x="120" y="70" width="250" height="60" rx="5" fill="#10B981" opacity="0.1"/>
  <rect x="130" y="80" width="100" height="10" rx="2" fill="#10B981" opacity="0.3"/>
  <rect x="130" y="95" width="150" height="10" rx="2" fill="#10B981" opacity="0.3"/>
  <rect x="130" y="110" width="80" height="10" rx="2" fill="#10B981" opacity="0.3"/>
  
  <!-- Cards -->
  <rect x="120" y="140" width="115" height="80" rx="5" fill="#059669" opacity="0.1"/>
  <rect x="255" y="140" width="115" height="80" rx="5" fill="#10B981" opacity="0.1"/>
  
  <!-- Card Content -->
  <rect x="130" y="150" width="95" height="8" rx="2" fill="#059669" opacity="0.3"/>
  <rect x="130" y="165" width="70" height="8" rx="2" fill="#059669" opacity="0.3"/>
  <rect x="130" y="180" width="85" height="8" rx="2" fill="#059669" opacity="0.3"/>
  
  <rect x="265" y="150" width="95" height="8" rx="2" fill="#10B981" opacity="0.3"/>
  <rect x="265" y="165" width="70" height="8" rx="2" fill="#10B981" opacity="0.3"/>
  <rect x="265" y="180" width="85" height="8" rx="2" fill="#10B981" opacity="0.3"/>
  
  <!-- Tech Stack -->
  <text x="200" y="210" font-family="Arial, sans-serif" font-size="12" fill="#94A3B8" text-anchor="middle">Django • SQLite • Productivity Platform</text>
</svg>
