<svg width="400" height="250" xmlns="http://www.w3.org/2000/svg">
  <defs>
    <linearGradient id="grad1" x1="0%" y1="0%" x2="100%" y2="100%">
      <stop offset="0%" style="stop-color:#4F46E5;stop-opacity:1" />
      <stop offset="100%" style="stop-color:#7C3AED;stop-opacity:1" />
    </linearGradient>
  </defs>
  <rect width="400" height="250" fill="#0F172A"/>
  <rect x="20" y="20" width="360" height="210" rx="10" fill="url(#grad1)" opacity="0.1"/>
  
  <!-- Sanskrit Text Representation -->
  <text x="200" y="60" font-family="Arial, sans-serif" font-size="18" fill="#4F46E5" text-anchor="middle" font-weight="bold">संस्कृत संधि विभाजक</text>
  <text x="200" y="85" font-family="Arial, sans-serif" font-size="14" fill="#7C3AED" text-anchor="middle">Sanskrit Sandhi Splitter</text>
  
  <!-- Neural Network Representation -->
  <circle cx="100" cy="130" r="8" fill="#4F46E5"/>
  <circle cx="150" cy="130" r="8" fill="#4F46E5"/>
  <circle cx="200" cy="130" r="8" fill="#4F46E5"/>
  <circle cx="250" cy="130" r="8" fill="#4F46E5"/>
  <circle cx="300" cy="130" r="8" fill="#4F46E5"/>
  
  <circle cx="100" cy="170" r="8" fill="#7C3AED"/>
  <circle cx="150" cy="170" r="8" fill="#7C3AED"/>
  <circle cx="200" cy="170" r="8" fill="#7C3AED"/>
  <circle cx="250" cy="170" r="8" fill="#7C3AED"/>
  <circle cx="300" cy="170" r="8" fill="#7C3AED"/>
  
  <!-- Connections -->
  <line x1="100" y1="138" x2="100" y2="162" stroke="#4F46E5" stroke-width="2"/>
  <line x1="150" y1="138" x2="150" y2="162" stroke="#4F46E5" stroke-width="2"/>
  <line x1="200" y1="138" x2="200" y2="162" stroke="#4F46E5" stroke-width="2"/>
  <line x1="250" y1="138" x2="250" y2="162" stroke="#4F46E5" stroke-width="2"/>
  <line x1="300" y1="138" x2="300" y2="162" stroke="#4F46E5" stroke-width="2"/>
  
  <!-- Tech Stack -->
  <text x="200" y="210" font-family="Arial, sans-serif" font-size="12" fill="#94A3B8" text-anchor="middle">BiLSTM-CRF • PyTorch • NLP</text>
</svg>
